Coordinates
version=1
nRows=16
nColumns=22
inDegrees=yes

Units are S.I. units (second, meters, Newtons, ...)
If the header above contains a line with 'inDegrees', this indicates whether rotational values are in degrees (yes) or radians (no).

endheader
time	pelvis_tilt	pelvis_list	pelvis_rotation	pelvis_tx	pelvis_ty	pelvis_tz	hip_flexion_r	hip_adduction_r	hip_rotation_r	knee_angle_r	ankle_angle_r	subtalar_angle_r	hip_flexion_l	hip_adduction_l	hip_rotation_l	knee_angle_l	ankle_angle_l	subtalar_angle_l	lumbar_extension	lumbar_bending	lumbar_rotation
      4.18000000	      6.74730530	     -2.85594242	    -86.42408196	      0.51318820	      1.07872566	      0.58746824	      7.38404975	     -4.94505927	     11.17035705	    -61.85906448	     -8.62045043	      9.57752225	      2.35130098	      7.84918932	      0.53197655	     -9.95241701	      6.87397000	     -2.26542845	     -2.83063779	     -7.76924789	     -3.28306825
      4.19000000	      6.87501801	     -2.83031907	    -86.35118583	      0.51538576	      1.07868860	      0.59125721	      8.05582217	     -5.11215960	     10.88666621	    -62.31727348	     -7.72208799	      8.85994985	      2.12262814	      8.11075491	      0.70098281	     -9.91811171	      6.98079231	     -2.49891682	     -2.89873710	     -7.90495971	     -3.46442656
      4.20000000	      7.00227081	     -2.83984489	    -86.27349884	      0.51744488	      1.07870550	      0.59491630	      8.64917896	     -5.24300954	     10.64221122	    -62.64454392	     -6.80408743	      8.28281220	      1.85906309	      8.35768297	      0.86094964	     -9.87799893	      7.06275835	     -2.67207600	     -3.01094894	     -8.04643186	     -3.64906697
      4.21000000	      7.11912449	     -2.84904828	    -86.19375812	      0.51936866	      1.07872300	      0.59846625	      9.20242189	     -5.33303081	     10.42377391	    -62.84312602	     -5.89114157	      7.73669606	      1.58916946	      8.58249856	      1.03368044	     -9.81548399	      7.12910497	     -2.82784990	     -3.11853430	     -8.18677936	     -3.80286917
      4.22000000	      7.23409325	     -2.86447972	    -86.11476209	      0.52115686	      1.07873884	      0.60189731	      9.70916024	     -5.39273334	     10.23457075	    -62.91613274	     -4.96627229	      7.31584267	      1.31873174	      8.79296134	      1.17663240	     -9.75295690	      7.19976516	     -2.94779038	     -3.23458958	     -8.33340567	     -3.95435411
      4.23000000	      7.29762898	     -2.85964003	    -86.05852990	      0.52277878	      1.07872851	      0.60522013	     10.19745698	     -5.36555721	     10.08323542	    -62.85262860	     -4.03214266	      6.70767389	      1.06072346	      8.94151201	      1.36387244	     -9.65860003	      7.24282155	     -3.11971906	     -3.31771330	     -8.43255628	     -4.02801578
      4.24000000	      7.38195631	     -2.85977025	    -85.99336216	      0.52431375	      1.07869770	      0.60842356	     10.64078350	     -5.35541908	      9.93699394	    -62.67440041	     -3.01907447	      6.37218937	      0.81180462	      9.10204344	      1.49865600	     -9.58057872	      7.31000409	     -3.22030150	     -3.41295555	     -8.56142007	     -4.10928226
      4.25000000	      7.44229443	     -2.84464884	    -85.93848453	      0.52573457	      1.07862516	      0.61150603	     11.06167130	     -5.31023576	      9.80822322	    -62.37539482	     -1.92268404	      6.00110372	      0.58132553	      9.23244053	      1.64451099	     -9.49216964	      7.37478689	     -3.33605526	     -3.49185170	     -8.66931495	     -4.15495652
      4.26000000	      7.47729015	     -2.81476671	    -85.89427939	      0.52705773	      1.07851636	      0.61447923	     11.45950218	     -5.23701925	      9.69131946	    -61.95689892	     -0.75056992	      5.59347651	      0.36337325	      9.33230193	      1.79847290	     -9.38123440	      7.42780101	     -3.46901349	     -3.55352166	     -8.75010106	     -4.17528597
      4.27000000	      7.51917451	     -2.78157424	    -85.84414808	      0.52834303	      1.07836106	      0.61732188	     11.82712557	     -5.19119247	      9.56500459	    -61.43824166	      0.52384439	      5.42509605	      0.17345658	      9.43557162	      1.89057380	     -9.30301484	      7.55054256	     -3.53715925	     -3.62183610	     -8.83722902	     -4.19318763
      4.28000000	      7.55755383	     -2.73109283	    -85.78283553	      0.52959866	      1.07816826	      0.62005476	     12.17292304	     -5.16384038	      9.42034184	    -60.81275594	      1.86165624	      5.20704012	     -0.00189291	      9.53544852	      2.00228158	     -9.20605440	      7.66200749	     -3.61869452	     -3.67665030	     -8.91916169	     -4.21274217
      4.29000000	      7.57678372	     -2.66697023	    -85.71914516	      0.53082573	      1.07795535	      0.62269838	     12.49370980	     -5.14094903	      9.25748622	    -60.07929120	      3.22629168	      4.89504351	     -0.16724461	      9.61546328	      2.12330335	     -9.08871998	      7.75423554	     -3.71352785	     -3.71585149	     -8.97379569	     -4.23161783
      4.30000000	      7.60341730	     -2.59904728	    -85.65015096	      0.53204639	      1.07770400	      0.62520993	     12.79154824	     -5.16011793	      9.07334453	    -59.26327294	      4.61830366	      4.68997168	     -0.30154999	      9.70306523	      2.19210235	     -9.00972053	      7.92931038	     -3.76750297	     -3.76205411	     -9.03149872	     -4.24031306
      4.31000000	      7.61395527	     -2.51978043	    -85.56850791	      0.53326319	      1.07745741	      0.62763939	     13.05960129	     -5.19595541	      8.84633554	    -58.34476437	      5.99093090	      4.23806998	     -0.43587830	      9.77509935	      2.29520717	     -8.89721539	      8.05212124	     -3.82387974	     -3.79486208	     -9.06474757	     -4.25902007
      4.32000000	      7.62834625	     -2.43809979	    -85.48556505	      0.53447698	      1.07720358	      0.62996395	     13.30158762	     -5.27334987	      8.58459165	    -57.34710180	      7.34073625	      3.77330178	     -0.55291851	      9.85169236	      2.36411139	     -8.80096507	      8.21540476	     -3.85291486	     -3.82889453	     -9.09585909	     -4.27028015
      4.33000000	      7.64273904	     -2.35726917	    -85.39704781	      0.53568924	      1.07697061	      0.63220206	     13.50860965	     -5.38724415	      8.27511627	    -56.26872336	      8.64081488	      3.19630849	     -0.66580790	      9.92823894	      2.42674537	     -8.70416153	      8.37723218	     -3.86595926	     -3.86423714	     -9.12042529	     -4.27955742
